G75*
%MOIN*%
%OFA0B0*%
%FSLAX24Y24*%
%IPPOS*%
%LPD*%
%AMOC8*
5,1,8,0,0,1.08239X$1,22.5*
%
%ADD10R,0.0736X0.0157*%
%ADD11R,0.0157X0.0736*%
%ADD12R,0.0945X0.0669*%
%ADD13R,0.0433X0.0394*%
%ADD14R,0.0787X0.0945*%
%ADD15R,0.0197X0.1145*%
%ADD16R,0.0748X0.0551*%
%ADD17R,0.0551X0.0709*%
%ADD18R,0.0591X0.0276*%
%ADD19R,0.0591X0.0866*%
%ADD20R,0.1496X0.0866*%
%ADD21R,0.0315X0.0591*%
%ADD22R,0.0394X0.0433*%
%ADD23R,0.0571X0.0197*%
%ADD24R,0.0197X0.0571*%
%ADD25R,0.0591X0.0512*%
%ADD26R,0.0551X0.0394*%
%ADD27R,0.0157X0.0787*%
%ADD28R,0.0315X0.0315*%
%ADD29R,0.1417X0.0472*%
%ADD30R,0.2087X0.0669*%
%ADD31R,0.0472X0.0236*%
%ADD32R,0.0689X0.0256*%
%ADD33R,0.0236X0.0669*%
%ADD34R,0.0394X0.1102*%
%ADD35R,0.0669X0.0236*%
%ADD36R,0.1102X0.0394*%
%ADD37R,0.0472X0.1417*%
%ADD38R,0.0669X0.2087*%
D10*
X021206Y018692D03*
X021206Y019007D03*
X021206Y019322D03*
X021206Y019637D03*
X021206Y019952D03*
X021206Y020267D03*
X021206Y020582D03*
X021206Y020897D03*
X021206Y021212D03*
X021206Y021527D03*
X021206Y021842D03*
X021206Y022157D03*
X021206Y022472D03*
X021206Y022786D03*
X021206Y023101D03*
X021206Y023416D03*
X027426Y023416D03*
X027426Y023101D03*
X027426Y022786D03*
X027426Y022472D03*
X027426Y022157D03*
X027426Y021842D03*
X027426Y021527D03*
X027426Y021212D03*
X027426Y020897D03*
X027426Y020582D03*
X027426Y020267D03*
X027426Y019952D03*
X027426Y019637D03*
X027426Y019322D03*
X027426Y019007D03*
X027426Y018692D03*
D11*
X026678Y017944D03*
X026363Y017944D03*
X026048Y017944D03*
X025733Y017944D03*
X025418Y017944D03*
X025103Y017944D03*
X024788Y017944D03*
X024473Y017944D03*
X024158Y017944D03*
X023843Y017944D03*
X023528Y017944D03*
X023213Y017944D03*
X022898Y017944D03*
X022583Y017944D03*
X022269Y017944D03*
X021954Y017944D03*
X021954Y024164D03*
X022269Y024164D03*
X022583Y024164D03*
X022898Y024164D03*
X023213Y024164D03*
X023528Y024164D03*
X023843Y024164D03*
X024158Y024164D03*
X024473Y024164D03*
X024788Y024164D03*
X025103Y024164D03*
X025418Y024164D03*
X025733Y024164D03*
X026048Y024164D03*
X026363Y024164D03*
X026678Y024164D03*
D12*
X029526Y022315D03*
X029526Y020858D03*
X019631Y014544D03*
X019631Y013087D03*
D13*
X020796Y013216D03*
X021465Y013216D03*
X021465Y014116D03*
X020796Y014116D03*
X020858Y016722D03*
X021528Y016722D03*
X018563Y019179D03*
X017893Y019179D03*
X016165Y017916D03*
X015496Y017916D03*
X015496Y017016D03*
X016165Y017016D03*
X016803Y016781D03*
X017472Y016781D03*
X016181Y015990D03*
X015512Y015990D03*
X009118Y016224D03*
X008449Y016224D03*
X014249Y024727D03*
X014918Y024727D03*
X014960Y026051D03*
X014291Y026051D03*
X014296Y026916D03*
X014965Y026916D03*
X015165Y030516D03*
X014496Y030516D03*
X014496Y031316D03*
X015165Y031316D03*
X021846Y025107D03*
X022515Y025107D03*
X019729Y021063D03*
X019059Y021063D03*
X029008Y019873D03*
X029678Y019873D03*
X030519Y020943D03*
X031189Y020943D03*
X031189Y022277D03*
X030519Y022277D03*
X035196Y017216D03*
X035865Y017216D03*
X036496Y017216D03*
X037165Y017216D03*
X024448Y011503D03*
X023778Y011503D03*
X024075Y007829D03*
X024744Y007829D03*
D14*
X025204Y006857D03*
X025204Y004692D03*
X028669Y004692D03*
X028669Y006857D03*
X014450Y006907D03*
X014450Y004742D03*
X010985Y004742D03*
X010985Y006907D03*
D15*
X012088Y007248D03*
X012403Y007248D03*
X012718Y007248D03*
X013033Y007248D03*
X013348Y007248D03*
X026307Y007198D03*
X026622Y007198D03*
X026937Y007198D03*
X027252Y007198D03*
X027567Y007198D03*
D16*
X042279Y021503D03*
X042633Y026700D03*
D17*
X037122Y024496D03*
X037122Y022133D03*
D18*
X041137Y022291D03*
X041137Y021858D03*
X041295Y022724D03*
X041137Y023157D03*
X041295Y023590D03*
X041137Y024023D03*
X040980Y024456D03*
X041137Y024889D03*
D19*
X013457Y030661D03*
X012551Y030661D03*
X011646Y030661D03*
D20*
X012551Y033220D03*
D21*
X013474Y028999D03*
X014222Y028999D03*
X013848Y027975D03*
D22*
X012589Y028397D03*
X012589Y029066D03*
X009181Y026400D03*
X009181Y025731D03*
X025231Y027181D03*
X025231Y027850D03*
X025231Y028481D03*
X025231Y029150D03*
X026231Y029150D03*
X026231Y028481D03*
X026231Y027850D03*
X026231Y027181D03*
X027231Y027181D03*
X027231Y027850D03*
X027231Y028481D03*
X027231Y029150D03*
X028263Y029157D03*
X028263Y028488D03*
X028263Y027854D03*
X028263Y027185D03*
X029231Y027181D03*
X029231Y027850D03*
X029231Y028481D03*
X029231Y029150D03*
X029956Y026215D03*
X029956Y025546D03*
X038831Y027581D03*
X038831Y028250D03*
X039831Y028250D03*
X039831Y027581D03*
X040831Y027581D03*
X040831Y028250D03*
X038106Y017037D03*
X038106Y016368D03*
X034633Y015891D03*
X034633Y015222D03*
X037731Y012850D03*
X037731Y012181D03*
X028731Y013781D03*
X027831Y013781D03*
X027831Y014450D03*
X028731Y014450D03*
X021987Y012465D03*
X021987Y011796D03*
X025581Y009250D03*
X025581Y008581D03*
X026431Y008581D03*
X027281Y008581D03*
X027281Y009250D03*
X026431Y009250D03*
X028131Y009250D03*
X028131Y008581D03*
D23*
X026363Y012851D03*
X026363Y013166D03*
X026363Y013481D03*
X026363Y013796D03*
X026363Y014111D03*
X026363Y014426D03*
X026363Y014741D03*
X026363Y015056D03*
X023135Y015056D03*
X023135Y014741D03*
X023135Y014426D03*
X023135Y014111D03*
X023135Y013796D03*
X023135Y013481D03*
X023135Y013166D03*
X023135Y012851D03*
D24*
X023646Y012340D03*
X023961Y012340D03*
X024276Y012340D03*
X024591Y012340D03*
X024906Y012340D03*
X025221Y012340D03*
X025536Y012340D03*
X025851Y012340D03*
X025851Y015568D03*
X025536Y015568D03*
X025221Y015568D03*
X024906Y015568D03*
X024591Y015568D03*
X024276Y015568D03*
X023961Y015568D03*
X023646Y015568D03*
D25*
X024781Y009250D03*
X024781Y008581D03*
D26*
X017764Y017542D03*
X017764Y018290D03*
X016898Y017916D03*
D27*
X035711Y016077D03*
X035967Y016077D03*
X036223Y016077D03*
X036479Y016077D03*
X036735Y016077D03*
X036991Y016077D03*
X037246Y016077D03*
X037502Y016077D03*
X037502Y013596D03*
X037246Y013596D03*
X036991Y013596D03*
X036735Y013596D03*
X036479Y013596D03*
X036223Y013596D03*
X035967Y013596D03*
X035711Y013596D03*
D28*
X017420Y015990D03*
X016829Y015990D03*
X016555Y019179D03*
X017145Y019179D03*
X010822Y016842D03*
X010822Y016251D03*
X015566Y024727D03*
X016157Y024727D03*
D29*
X008664Y027971D03*
X008664Y028759D03*
D30*
X006428Y029762D03*
X006428Y026967D03*
D31*
X034015Y026835D03*
X034015Y027335D03*
X034015Y027835D03*
X034015Y028335D03*
X034015Y028835D03*
X036220Y028835D03*
X036220Y028335D03*
X036220Y027835D03*
X036220Y027335D03*
X036220Y026835D03*
X036220Y026335D03*
X036220Y025835D03*
X034015Y025835D03*
X034015Y026335D03*
D32*
X012881Y026366D03*
X012881Y026866D03*
X012881Y027366D03*
X012881Y025866D03*
X010681Y025866D03*
X010681Y026366D03*
X010681Y026866D03*
X010681Y027366D03*
D33*
X022286Y030816D03*
X022778Y030816D03*
X023270Y030816D03*
X023762Y030816D03*
X024254Y030816D03*
X024746Y030816D03*
X025239Y030816D03*
X025731Y030816D03*
X026223Y030816D03*
X026715Y030816D03*
X027207Y030816D03*
X027699Y030816D03*
X028191Y030816D03*
X028683Y030816D03*
X029176Y030816D03*
D34*
X029983Y032469D03*
X021538Y032469D03*
D35*
X007831Y015660D03*
X007831Y015168D03*
X007831Y014676D03*
X007831Y014184D03*
X007831Y013692D03*
X007831Y013200D03*
X007831Y012708D03*
X007831Y012216D03*
X007831Y011723D03*
X007831Y011231D03*
X007831Y010739D03*
X007831Y010247D03*
X007831Y009755D03*
X007831Y009263D03*
X007831Y008771D03*
D36*
X006177Y008023D03*
X006177Y016468D03*
D37*
X033350Y030851D03*
X034137Y030851D03*
X034924Y030851D03*
X035712Y030851D03*
D38*
X036716Y033088D03*
X032346Y033088D03*
M02*
