G75*
%MOIN*%
%OFA0B0*%
%FSLAX24Y24*%
%IPPOS*%
%LPD*%
%AMOC8*
5,1,8,0,0,1.08239X$1,22.5*
%
%ADD10C,0.0454*%
%ADD11OC8,0.0800*%
%ADD12R,0.0800X0.0800*%
%ADD13C,0.0800*%
%ADD14C,0.2060*%
%ADD15C,0.1320*%
%ADD16R,0.0710X0.0710*%
%ADD17C,0.0710*%
%ADD18C,0.0600*%
D10*
X011852Y005923D03*
X013584Y005923D03*
X026070Y005873D03*
X027803Y005873D03*
D11*
X031076Y025758D03*
X032076Y025758D03*
X032076Y026758D03*
X031076Y026758D03*
X031076Y027758D03*
X032076Y027758D03*
D12*
X019981Y025916D03*
X028631Y016266D03*
X039624Y016729D03*
X006931Y020416D03*
D13*
X006931Y021416D03*
X006931Y022416D03*
X019981Y027916D03*
X020081Y028916D03*
X020081Y026916D03*
X029631Y016166D03*
X030631Y016266D03*
X031631Y016166D03*
X039624Y015638D03*
X040742Y016182D03*
X040742Y015091D03*
X039624Y014548D03*
X040742Y014005D03*
X039624Y013457D03*
X040742Y012914D03*
X039624Y012367D03*
D14*
X040183Y009627D03*
X040183Y019469D03*
D15*
X006206Y004990D03*
X042426Y004990D03*
X042426Y033337D03*
X006206Y033337D03*
D16*
X009331Y023816D03*
X009231Y019016D03*
D17*
X009231Y020016D03*
X009331Y022816D03*
D18*
X011631Y024046D02*
X011631Y024586D01*
X012631Y024586D02*
X012631Y024046D01*
M02*
