%
M48
M72
T01C0.0130
T02C0.0197
T03C0.0236
T04C0.0276
T05C0.0360
T06C0.0394
T07C0.0400
T08C0.1260
T09C0.1300
%
T01
X22131Y25866
T02
X24931Y17216
T03
X25931Y17216
X26431Y17216
X25331Y18616
X25131Y19116
X24531Y19016
X24231Y19516
X25731Y20216
X26731Y20216
X28231Y21116
X28531Y20716
X28231Y22216
X28831Y23616
X30331Y24616
X29631Y25016
X28231Y26616
X27231Y26716
X26231Y26716
X25131Y26716
X24831Y25716
X23131Y25016
X21531Y23816
X21331Y25116
X22631Y26416
X18731Y29316
X17431Y30516
X15931Y31316
X14931Y32016
X14131Y29916
X11431Y29516
X10881Y28466
X9831Y28916
X9831Y29416
X9331Y29416
X10731Y32516
X8181Y26116
X15631Y18616
X18731Y18216
X19631Y18716
X20231Y18516
X22231Y19016
X23331Y16816
X21031Y16016
X20631Y15616
X19831Y15616
X18731Y16716
X17831Y15916
X18031Y21116
X24281Y21016
X28631Y17616
X31631Y19816
X32131Y20116
X32531Y20716
X31731Y21116
X32181Y22166
X33531Y24316
X34831Y24216
X34831Y24716
X36031Y24716
X36031Y23816
X34631Y25716
X34731Y26816
X36931Y27316
X37881Y27316
X37781Y25516
X40431Y24416
X38931Y22416
X33881Y20116
X25531Y14916
X27331Y12716
X26431Y11916
X9831Y14216
X8931Y14716
X5731Y11016
X10031Y6116
X33331Y29197
X31731Y29516
X29531Y30116
X29031Y30116
X24031Y31616
X21631Y31216
X19631Y32016
T04
X9331Y23816
X9331Y22816
X9231Y20016
X9231Y19016
T05
X11631Y24316
X12631Y24316
T06
X6931Y22416
X6931Y21416
X6931Y20416
X11852Y5923
X13584Y5923
X26070Y5873
X27803Y5873
T07
X39624Y12367
X40742Y12914
X39624Y13457
X40742Y14005
X39624Y14548
X40742Y15091
X39624Y15638
X40742Y16182
X39624Y16729
X31631Y16166
X30631Y16266
X29631Y16166
X28631Y16266
X31076Y25758
X32076Y25758
X32076Y26758
X31076Y26758
X31076Y27758
X32076Y27758
X20081Y26916
X19981Y25916
X19981Y27916
X20081Y28916
T08
X6206Y4990
X42426Y4990
X42426Y33337
X6206Y33337
T09
X40183Y19469
X40183Y9627
M30
